# xmcd
#
# Track frame offsets:
#	150
#	5567
#	25817
#	48780
#	68265
#	86625
#	107175
#	124110
#	128665
#	144852
#	165712
#	171465
#	189237
#	209475
#
# Disc length: 3036 seconds
#
# Revision: 1
# Processed by: cddbd v1.5.2PL0 Copyright (c) Steve Scherf et al.
# Submitted via: dBpowerAMP V4.0
#
DISCID=b50bda0e
DTITLE=Emma Shaplin - Carmine Meo
DYEAR=1900
DGENRE=Blues
TTITLE0=De L'Abime Au Rivage... 
TTITLE1=Spente Le Stelle 
TTITLE2=Carmine Meo
TTITLE3=Cuor Senza Sangue
TTITLE4=Favola Breve
TTITLE5=Reprendo Mai Piu...
TTITLE6=Une Ombre Dans Le Ciel
TTITLE7=Ira Di Dio
TTITLE8=A La Frontiere Du Rere
TTITLE9=Falta Tu Estrella
TTITLE10=Cuerpo Sin Alma
TTITLE11=Vedi, Maria...
TTITLE12=Lucifero, Quel Giorno...
TTITLE13=Miserere, Venere...
EXTD=
EXTT0=
EXTT1=
EXTT2=
EXTT3=
EXTT4=
EXTT5=
EXTT6=
EXTT7=
EXTT8=
EXTT9=
EXTT10=
EXTT11=
EXTT12=
EXTT13=
PLAYORDER=
